<?xml version="1.0" encoding="UTF-8" standalone="no"?>
<!DOCTYPE svg PUBLIC "-//W3C//DTD SVG 1.1//EN" "http://www.w3.org/Graphics/SVG/1.1/DTD/svg11.dtd">
<svg xmlns="http://www.w3.org/2000/svg" version="1.1" viewBox="0.00 0.00 468.00 447.00">
<g stroke-width="2.00" fill="none" stroke-linecap="butt">
<path stroke="#91d6a4" vector-effect="non-scaling-stroke" d="
  M 161.65 228.72
  L 172.83 250.77"
/>
<path stroke="#91c594" vector-effect="non-scaling-stroke" d="
  M 172.83 250.77
  Q 174.05 252.71 175.41 254.61
  C 186.43 269.87 196.86 286.06 206.70 302.16
  Q 213.65 313.55 226.73 339.62
  Q 228.44 343.03 229.92 346.90
  Q 230.36 348.07 230.56 346.83
  Q 231.52 340.78 233.85 334.50
  Q 243.56 308.40 258.95 283.42
  Q 269.99 265.51 281.80 247.17
  C 288.20 237.24 293.55 226.58 296.36 214.77"
/>
<path stroke="#91d6a4" vector-effect="non-scaling-stroke" d="
  M 296.36 214.77
  C 300.96 196.15 299.43 175.96 293.20 157.87"
/>
<path stroke="#97e3ad" vector-effect="non-scaling-stroke" d="
  M 293.20 157.87
  Q 291.17 151.38 288.32 144.92
  Q 280.46 127.14 270.96 110.62
  Q 261.63 94.37 241.20 61.38
  C 237.70 55.73 233.90 50.43 230.48 44.92
  Q 230.02 44.18 229.31 43.86
  A 0.96 0.95 31.4 0 0 228.17 44.13
  Q 224.35 48.93 221.16 53.60
  Q 197.84 87.72 178.19 122.82
  Q 171.32 135.08 164.82 150.32
  Q 157.64 167.14 155.95 183.14
  C 154.37 198.08 155.88 214.64 161.65 228.72"
/>
<path stroke="#2bbc53" vector-effect="non-scaling-stroke" d="
  M 293.20 157.87
  L 292.73 158.78
  Q 292.44 159.32 291.97 158.94
  Q 290.29 157.57 287.68 158.21
  Q 286.55 158.49 286.05 157.54
  A 1.56 1.56 0.0 0 0 285.44 156.90
  Q 283.76 155.97 282.03 154.98
  Q 280.65 154.18 278.86 153.68
  Q 274.11 152.36 269.54 150.29
  Q 266.96 149.12 263.48 148.78
  Q 256.27 148.08 250.00 147.14
  Q 249.83 147.11 249.60 147.23
  Q 249.23 147.41 248.84 147.27
  Q 246.72 146.53 244.65 146.65
  C 243.06 146.74 241.96 146.00 240.36 146.31
  Q 239.81 146.42 239.26 146.26
  L 236.49 145.42
  Q 235.89 145.23 235.58 145.78
  Q 235.42 146.06 235.11 146.07
  Q 234.52 146.08 234.05 145.81
  Q 233.20 145.32 232.52 146.04
  Q 232.34 146.22 232.17 146.04
  Q 232.07 145.93 231.93 145.95
  Q 231.44 145.99 231.43 146.48
  L 230.93 161.72"
/>
<path stroke="#71d491" vector-effect="non-scaling-stroke" d="
  M 230.93 161.72
  Q 230.57 148.52 229.88 135.35
  C 229.79 133.64 230.00 132.06 229.52 130.34
  Q 229.23 129.31 229.18 130.38
  L 227.31 165.47"
/>
<path stroke="#2bbc53" vector-effect="non-scaling-stroke" d="
  M 227.31 165.47
  Q 226.83 164.70 226.60 163.72
  Q 226.49 163.22 226.05 163.48
  Q 224.25 164.54 222.31 165.69
  A 20.56 20.25 6.4 0 0 218.18 168.94
  Q 210.70 176.58 203.22 184.32
  Q 201.82 185.76 200.51 187.37
  Q 199.24 188.95 197.82 190.31
  Q 196.16 191.91 194.90 193.74
  Q 193.31 196.05 191.23 197.69
  Q 190.28 198.44 189.62 199.48
  Q 189.28 200.02 188.65 200.12
  Q 187.98 200.24 187.80 200.90
  A 1.06 1.04 80.5 0 1 187.38 201.50
  Q 184.91 203.17 183.06 205.87
  Q 182.79 206.26 182.38 206.50
  Q 181.77 206.87 181.30 207.42
  Q 178.82 210.35 176.22 212.92
  Q 175.91 213.23 175.72 213.62
  Q 175.41 214.26 174.92 214.78
  Q 171.83 218.07 169.50 221.48
  C 168.28 223.26 166.84 224.68 165.41 226.30
  Q 165.04 226.71 164.91 227.24
  L 164.58 228.51
  Q 164.38 229.32 163.60 229.04
  Q 162.68 228.71 161.65 228.72"
/>
<path stroke="#259e3a" vector-effect="non-scaling-stroke" d="
  M 296.36 214.77
  L 294.92 212.58
  Q 294.66 212.19 294.23 212.04
  Q 293.67 211.84 293.14 212.06
  Q 292.52 212.33 292.16 211.75
  Q 291.26 210.27 290.25 208.77
  Q 289.60 207.81 288.70 207.29
  Q 287.71 206.72 287.08 205.81
  C 285.57 203.64 283.34 201.72 281.35 199.97
  A 0.40 0.40 0.0 0 0 280.84 199.95
  Q 280.51 200.20 280.62 200.46
  Q 280.90 201.15 280.40 200.61
  Q 277.61 197.57 275.01 196.03
  Q 271.96 194.21 266.57 192.28
  A 1.53 1.50 -46.8 0 0 265.40 192.33
  Q 263.20 193.38 261.22 191.90
  Q 260.28 191.19 259.09 191.01
  Q 256.51 190.61 253.69 190.23
  C 252.06 190.01 250.72 190.82 249.10 190.10
  Q 248.61 189.89 248.07 189.89
  L 245.54 189.88
  A 0.60 0.58 -64.7 0 0 245.15 190.03
  Q 243.83 191.18 242.28 190.76
  Q 242.15 190.73 242.11 190.86
  Q 242.07 191.01 241.95 191.06
  Q 241.34 191.28 240.85 190.80
  Q 240.53 190.49 240.16 190.71
  Q 239.84 190.89 239.47 190.85
  L 236.72 190.56
  Q 236.30 190.52 236.25 190.10
  Q 236.22 189.77 235.88 189.71
  Q 235.53 189.65 235.20 189.76
  Q 233.97 190.19 232.60 190.30
  A 0.10 0.10 0.0 0 1 232.54 190.11
  Q 232.77 189.97 232.53 189.73
  Q 232.13 189.32 232.13 189.89
  L 232.13 191.24
  Q 232.13 191.32 232.06 191.32
  L 231.79 191.33
  A 0.24 0.24 0.0 0 1 231.53 191.10
  L 231.14 163.29"
/>
<path stroke="#6ac788" vector-effect="non-scaling-stroke" d="
  M 230.93 161.72
  L 231.14 163.29"
/>
<path stroke="#6bb678" vector-effect="non-scaling-stroke" d="
  M 231.14 163.29
  Q 231.36 199.64 231.60 236.00
  Q 231.73 254.65 231.56 270.63
  Q 231.51 275.59 231.01 285.85
  Q 230.64 293.51 230.67 301.06
  C 230.70 309.91 229.72 319.58 229.88 328.80
  Q 229.88 328.85 229.86 328.90
  Q 229.79 329.04 229.65 329.10
  Q 229.34 329.23 229.31 328.90
  Q 229.20 327.48 228.91 326.16
  Q 228.65 325.02 228.64 323.71
  Q 228.31 298.67 227.93 277.00
  Q 227.58 257.98 227.69 238.96"
/>
<path stroke="#6ac788" vector-effect="non-scaling-stroke" d="
  M 227.69 238.96
  L 227.31 165.47"
/>
<path stroke="#259e3a" vector-effect="non-scaling-stroke" d="
  M 227.69 238.96
  L 227.18 193.88
  A 1.54 1.54 0.0 0 0 225.15 192.44
  Q 220.45 194.02 218.40 199.17
  Q 218.25 199.57 218.37 199.17
  Q 218.41 199.02 218.34 198.88
  Q 218.25 198.68 218.06 198.80
  Q 216.47 199.81 215.63 201.17
  C 214.84 202.47 213.53 202.98 212.62 204.12
  Q 209.64 207.87 206.61 211.75
  Q 204.96 213.85 202.44 216.56
  Q 200.38 218.77 198.14 221.35
  Q 196.91 222.77 196.52 223.88
  Q 196.49 223.98 196.41 223.92
  Q 196.28 223.82 196.16 223.88
  Q 195.80 224.08 195.70 224.46
  C 195.49 225.27 194.76 225.68 194.24 226.32
  Q 190.80 230.52 187.27 234.75
  Q 186.85 235.25 186.93 235.89
  Q 187.00 236.39 186.49 236.42
  Q 185.88 236.47 185.50 236.96
  Q 180.58 243.43 175.97 249.71
  A 1.23 1.22 20.1 0 1 174.89 250.21
  Q 173.21 250.08 172.83 250.77"
/>
<path stroke="#91d6a4" vector-effect="non-scaling-stroke" d="
  M 337.76 227.20
  C 323.24 234.34 310.87 241.39 298.99 251.97"
/>
<path stroke="#91c594" vector-effect="non-scaling-stroke" d="
  M 298.99 251.97
  Q 292.25 257.41 285.13 265.86
  C 266.50 288.01 252.03 312.51 243.89 339.23
  Q 243.07 341.93 242.56 344.61
  Q 242.41 345.39 242.96 345.92
  Q 243.65 346.57 244.64 346.49
  A 0.65 0.65 0.0 0 1 245.34 347.16
  Q 245.26 350.27 242.65 350.27
  Q 242.04 350.27 241.78 350.82
  L 236.94 361.18
  A 0.69 0.69 0.0 0 0 237.90 362.07
  C 240.03 360.89 242.66 356.24 243.65 354.19
  C 244.52 352.42 245.89 350.88 247.31 349.55
  Q 258.72 338.91 271.20 328.31
  C 278.12 322.44 285.80 317.08 293.00 311.29
  C 304.66 301.93 317.07 293.31 329.31 284.57"
/>
<path stroke="#91d6a4" vector-effect="non-scaling-stroke" d="
  M 329.31 284.57
  Q 331.51 283.05 333.80 281.39
  Q 333.84 281.36 333.89 281.37
  Q 333.94 281.37 333.98 281.36
  Q 334.20 281.31 334.03 281.45
  Q 324.04 289.60 314.35 298.10
  Q 311.38 300.71 308.83 303.66"
/>
<path stroke="#8aba95" vector-effect="non-scaling-stroke" d="
  M 308.83 303.66
  Q 284.72 324.71 260.55 345.64
  C 254.93 350.51 249.63 355.70 244.21 360.77
  C 242.82 362.07 241.65 363.70 240.28 365.05
  C 239.04 366.27 239.14 368.71 241.28 368.80
  Q 256.26 369.44 285.09 369.90
  Q 288.08 369.95 290.99 369.77
  Q 294.19 369.58 296.95 369.35"
/>
<path stroke="#91d6a4" vector-effect="non-scaling-stroke" d="
  M 296.95 369.35
  Q 331.53 366.70 356.33 344.08
  Q 380.27 322.24 387.48 290.05"
/>
<path stroke="#97e3ad" vector-effect="non-scaling-stroke" d="
  M 387.48 290.05
  C 390.87 276.25 391.28 262.07 390.95 247.61
  Q 390.32 220.34 388.92 195.79
  Q 388.85 194.49 388.26 193.29
  A 0.99 0.99 0.0 0 0 386.63 193.07
  Q 374.50 206.87 358.80 216.09
  Q 353.33 219.29 337.76 227.20"
/>
<path stroke="#2bbc53" vector-effect="non-scaling-stroke" d="
  M 387.48 290.05
  Q 386.72 289.05 385.68 289.03
  Q 385.13 289.02 385.13 288.47
  L 385.13 288.13
  Q 385.13 287.37 384.37 287.37
  L 382.21 287.37
  Q 381.70 287.37 381.54 286.89
  Q 380.70 284.51 380.12 282.15
  Q 379.99 281.63 379.63 281.23
  Q 378.76 280.26 378.88 279.03
  Q 378.93 278.39 378.42 278.00
  Q 377.57 277.35 377.99 276.38
  Q 378.20 275.89 377.78 275.57
  Q 376.95 274.93 376.79 273.96
  C 376.54 272.47 375.80 271.53 375.21 270.21
  Q 374.77 269.22 374.13 268.26
  Q 371.38 264.18 368.62 259.80
  Q 368.26 259.23 367.69 259.16
  Q 367.00 259.07 366.29 259.11
  Q 365.73 259.15 365.46 258.66
  Q 363.01 254.31 359.20 250.26
  Q 358.73 249.76 358.12 249.47
  Q 357.30 249.08 357.84 249.81
  Q 359.44 252.00 360.64 254.03
  Q 361.19 254.97 360.25 254.42
  C 359.40 253.92 358.97 252.69 358.27 251.95
  Q 352.27 245.63 345.97 239.01
  Q 345.60 238.62 345.06 238.62
  L 344.57 238.62
  Q 344.01 238.62 343.67 238.18
  Q 342.61 236.80 341.74 235.33
  Q 341.10 234.25 340.24 233.26
  Q 338.28 231.03 338.79 227.68
  A 0.24 0.24 0.0 0 0 338.52 227.40
  Q 338.19 227.43 337.76 227.20"
/>
<path stroke="#1d933c" vector-effect="non-scaling-stroke" d="
  M 296.95 369.35
  Q 298.27 366.49 299.17 364.13
  Q 299.45 363.39 300.12 363.23
  Q 300.64 363.10 300.74 362.57
  Q 300.77 362.42 300.77 362.26
  Q 300.76 361.68 301.21 361.32
  Q 301.91 360.76 301.95 360.02
  Q 301.97 359.49 302.34 359.10
  Q 303.56 357.77 304.11 355.88
  C 304.55 354.37 305.66 352.98 306.39 351.50
  Q 306.58 351.12 306.99 351.12
  L 307.40 351.12
  Q 307.92 351.12 308.01 350.61
  Q 308.22 349.44 308.87 348.26
  Q 309.32 347.44 310.17 347.10
  Q 317.59 344.04 323.48 340.92
  Q 326.34 339.40 328.95 337.39
  A 1.60 1.59 59.3 0 0 329.43 335.49
  Q 328.00 332.24 326.63 329.17
  Q 324.45 324.30 320.82 319.21
  Q 319.81 317.78 319.13 316.39
  Q 318.39 314.90 317.72 313.43
  Q 317.50 312.94 317.03 312.68
  Q 316.43 312.34 316.59 311.65
  Q 316.62 311.54 316.52 311.50
  Q 316.35 311.42 316.28 311.50
  Q 316.11 311.73 316.06 311.44
  Q 315.92 310.49 315.14 309.88
  Q 314.72 309.56 314.63 309.03
  Q 314.23 306.75 312.35 305.39
  Q 311.93 305.09 311.86 305.60
  Q 311.84 305.73 311.87 305.87
  Q 312.10 306.86 311.61 305.96
  Q 310.63 304.16 308.83 303.66"
/>
<path stroke="#259e3a" vector-effect="non-scaling-stroke" d="
  M 329.31 284.57
  Q 328.45 283.15 327.16 282.26
  Q 326.76 281.98 326.60 281.53
  Q 325.88 279.49 324.28 278.25
  C 322.47 276.84 321.22 274.95 319.82 273.21
  Q 319.49 272.81 318.99 272.72
  C 317.63 272.46 317.16 271.31 316.17 270.53
  Q 310.24 265.89 304.19 261.43
  Q 303.83 261.16 303.54 260.19
  Q 303.31 259.44 302.68 258.97
  Q 301.53 258.13 300.65 257.02
  Q 299.60 255.70 299.06 253.62
  Q 298.93 253.16 299.41 253.11
  Q 299.79 253.08 300.04 252.77
  Q 300.23 252.53 299.94 252.62
  Q 299.75 252.67 299.58 252.57
  Q 299.48 252.50 299.45 252.38
  Q 299.44 252.33 299.48 252.29
  Q 299.65 252.15 299.42 252.14
  Q 299.17 252.13 298.99 251.97"
/>
<path stroke="#91d6a4" vector-effect="non-scaling-stroke" d="
  M 100.74 336.66
  C 112.24 350.13 127.40 359.16 143.93 364.90
  Q 152.69 367.94 161.97 368.98"
/>
<path stroke="#8dc198" vector-effect="non-scaling-stroke" d="
  M 161.97 368.98
  C 176.21 371.18 190.91 370.60 205.94 369.40
  C 211.27 368.97 215.42 367.84 220.24 366.06
  Q 221.04 365.77 220.45 365.16
  C 217.49 362.12 214.13 359.56 211.13 356.55
  Q 201.62 346.99 191.26 339.04
  C 173.32 325.28 158.09 311.13 141.48 295.69
  Q 139.63 293.97 134.60 289.84
  Q 134.50 289.76 134.37 289.73
  Q 134.20 289.69 134.11 289.73"
/>
<path stroke="#97e3ad" vector-effect="non-scaling-stroke" d="
  M 134.11 289.73
  Q 133.19 288.79 133.55 288.74"
/>
<path stroke="#91c594" vector-effect="non-scaling-stroke" d="
  M 133.55 288.74
  C 145.18 297.35 157.39 305.81 168.37 314.56
  Q 178.73 322.82 190.05 331.89
  C 197.37 337.75 207.25 342.92 215.32 349.40
  C 216.46 350.32 217.33 351.48 218.35 352.53"
/>
<path stroke="#91d6a4" vector-effect="non-scaling-stroke" d="
  M 218.35 352.53
  Q 220.96 356.84 222.26 361.81
  Q 222.65 363.30 223.77 363.26
  A 0.85 0.84 73.4 0 0 224.46 361.98
  L 218.54 352.09"
/>
<path stroke="#91c594" vector-effect="non-scaling-stroke" d="
  M 218.54 352.09
  C 217.43 349.50 216.29 347.23 215.59 344.45
  Q 214.53 340.17 212.46 335.05
  Q 204.60 315.66 194.01 298.93
  C 184.27 283.54 175.35 269.65 163.22 256.45"
/>
<path stroke="#97e3ad" vector-effect="non-scaling-stroke" d="
  M 163.22 256.45
  Q 151.24 243.79 139.33 236.65
  C 125.72 228.49 111.71 221.13 98.93 212.06
  Q 87.29 203.80 79.27 193.76
  Q 78.44 192.71 77.16 192.95
  A 0.78 0.77 -4.7 0 0 76.53 193.68
  Q 75.40 228.39 76.29 261.33
  Q 76.57 271.93 77.59 281.75
  Q 80.40 308.61 96.09 330.71
  Q 98.38 333.93 100.74 336.66"
/>
<path stroke="#2bab43" vector-effect="non-scaling-stroke" d="
  M 163.22 256.45
  Q 162.25 256.09 161.77 256.38
  Q 161.39 256.61 161.83 256.63
  Q 161.97 256.64 162.11 256.66
  A 0.50 0.49 -69.4 0 1 162.45 257.41
  Q 160.73 260.18 157.39 261.50
  Q 154.34 262.71 151.21 265.33
  Q 150.00 266.35 148.47 267.01
  Q 147.01 267.64 145.64 268.58
  Q 143.67 269.93 141.71 271.20
  Q 139.08 272.90 136.97 275.20
  A 0.62 0.60 19.2 0 1 136.54 275.40
  Q 136.07 275.40 136.10 275.90
  A 0.79 0.78 67.2 0 1 135.85 276.52
  L 128.29 283.37
  Q 127.30 284.27 128.39 285.05
  L 133.55 288.74"
/>
<path stroke="#27a747" vector-effect="non-scaling-stroke" d="
  M 134.11 289.73
  L 133.19 289.63
  Q 132.69 289.58 132.25 289.84
  Q 131.04 290.54 130.25 291.62
  Q 129.39 292.81 128.34 293.74
  Q 122.84 298.58 116.97 303.36
  Q 116.51 303.74 115.93 303.63
  L 114.56 303.39
  Q 113.40 303.19 114.05 304.17
  L 118.50 310.91"
/>
<path stroke="#2bbc53" vector-effect="non-scaling-stroke" d="
  M 118.50 310.91
  Q 116.76 312.06 115.33 314.73
  Q 114.31 316.64 113.50 318.66
  Q 113.42 318.84 113.43 319.04
  Q 113.43 319.34 113.62 319.30
  Q 114.24 319.17 113.98 319.75
  Q 113.23 321.46 112.98 323.30
  Q 112.91 323.79 112.58 324.16
  Q 108.94 328.23 107.35 333.46
  Q 107.20 333.98 106.78 334.32
  L 104.60 336.05
  Q 104.27 336.32 103.84 336.25
  Q 101.80 335.92 100.74 336.66"
/>
<path stroke="#259e3a" vector-effect="non-scaling-stroke" d="
  M 218.54 352.09
  Q 218.80 352.48 218.35 352.53"
/>
<path stroke="#209a3e" vector-effect="non-scaling-stroke" d="
  M 161.97 368.98
  L 160.74 368.59
  Q 160.05 368.38 160.09 367.65
  Q 160.10 367.39 159.80 367.36
  Q 159.00 367.30 159.11 366.50
  Q 159.65 362.62 158.62 358.75
  Q 158.31 357.57 158.86 356.03
  Q 159.06 355.48 158.62 355.11
  Q 157.72 354.34 158.57 353.43
  A 1.19 1.19 0.0 0 0 158.84 352.27
  Q 158.34 350.70 159.40 349.44
  Q 159.80 348.97 159.26 348.67
  Q 154.31 345.97 150.27 342.84
  Q 145.00 338.77 136.15 331.34
  Q 128.31 324.75 118.50 310.91"
/>
<path stroke="#91d6a4" vector-effect="non-scaling-stroke" d="
  M 233.54 366.92
  L 226.86 366.90
  A 3.08 3.08 0.0 0 0 223.78 369.98
  L 223.67 431.15
  A 9.59 6.36 -89.9 0 0 230.02 440.75
  L 230.14 440.75
  A 9.59 6.36 -89.9 0 0 236.51 431.17
  L 236.62 370.00
  A 3.08 3.08 0.0 0 0 233.54 366.92"
/>
</g>
<path fill="#fdfdfd" d="
  M 0.00 0.00
  L 468.00 0.00
  L 468.00 447.00
  L 0.00 447.00
  L 0.00 0.00
  Z
  M 161.65 228.72
  L 172.83 250.77
  Q 174.05 252.71 175.41 254.61
  C 186.43 269.87 196.86 286.06 206.70 302.16
  Q 213.65 313.55 226.73 339.62
  Q 228.44 343.03 229.92 346.90
  Q 230.36 348.07 230.56 346.83
  Q 231.52 340.78 233.85 334.50
  Q 243.56 308.40 258.95 283.42
  Q 269.99 265.51 281.80 247.17
  C 288.20 237.24 293.55 226.58 296.36 214.77
  C 300.96 196.15 299.43 175.96 293.20 157.87
  Q 291.17 151.38 288.32 144.92
  Q 280.46 127.14 270.96 110.62
  Q 261.63 94.37 241.20 61.38
  C 237.70 55.73 233.90 50.43 230.48 44.92
  Q 230.02 44.18 229.31 43.86
  A 0.96 0.95 31.4 0 0 228.17 44.13
  Q 224.35 48.93 221.16 53.60
  Q 197.84 87.72 178.19 122.82
  Q 171.32 135.08 164.82 150.32
  Q 157.64 167.14 155.95 183.14
  C 154.37 198.08 155.88 214.64 161.65 228.72
  Z
  M 337.76 227.20
  C 323.24 234.34 310.87 241.39 298.99 251.97
  Q 292.25 257.41 285.13 265.86
  C 266.50 288.01 252.03 312.51 243.89 339.23
  Q 243.07 341.93 242.56 344.61
  Q 242.41 345.39 242.96 345.92
  Q 243.65 346.57 244.64 346.49
  A 0.65 0.65 0.0 0 1 245.34 347.16
  Q 245.26 350.27 242.65 350.27
  Q 242.04 350.27 241.78 350.82
  L 236.94 361.18
  A 0.69 0.69 0.0 0 0 237.90 362.07
  C 240.03 360.89 242.66 356.24 243.65 354.19
  C 244.52 352.42 245.89 350.88 247.31 349.55
  Q 258.72 338.91 271.20 328.31
  C 278.12 322.44 285.80 317.08 293.00 311.29
  C 304.66 301.93 317.07 293.31 329.31 284.57
  Q 331.51 283.05 333.80 281.39
  Q 333.84 281.36 333.89 281.37
  Q 333.94 281.37 333.98 281.36
  Q 334.20 281.31 334.03 281.45
  Q 324.04 289.60 314.35 298.10
  Q 311.38 300.71 308.83 303.66
  Q 284.72 324.71 260.55 345.64
  C 254.93 350.51 249.63 355.70 244.21 360.77
  C 242.82 362.07 241.65 363.70 240.28 365.05
  C 239.04 366.27 239.14 368.71 241.28 368.80
  Q 256.26 369.44 285.09 369.90
  Q 288.08 369.95 290.99 369.77
  Q 294.19 369.58 296.95 369.35
  Q 331.53 366.70 356.33 344.08
  Q 380.27 322.24 387.48 290.05
  C 390.87 276.25 391.28 262.07 390.95 247.61
  Q 390.32 220.34 388.92 195.79
  Q 388.85 194.49 388.26 193.29
  A 0.99 0.99 0.0 0 0 386.63 193.07
  Q 374.50 206.87 358.80 216.09
  Q 353.33 219.29 337.76 227.20
  Z
  M 100.74 336.66
  C 112.24 350.13 127.40 359.16 143.93 364.90
  Q 152.69 367.94 161.97 368.98
  C 176.21 371.18 190.91 370.60 205.94 369.40
  C 211.27 368.97 215.42 367.84 220.24 366.06
  Q 221.04 365.77 220.45 365.16
  C 217.49 362.12 214.13 359.56 211.13 356.55
  Q 201.62 346.99 191.26 339.04
  C 173.32 325.28 158.09 311.13 141.48 295.69
  Q 139.63 293.97 134.60 289.84
  Q 134.50 289.76 134.37 289.73
  Q 134.20 289.69 134.11 289.73
  Q 133.19 288.79 133.55 288.74
  C 145.18 297.35 157.39 305.81 168.37 314.56
  Q 178.73 322.82 190.05 331.89
  C 197.37 337.75 207.25 342.92 215.32 349.40
  C 216.46 350.32 217.33 351.48 218.35 352.53
  Q 220.96 356.84 222.26 361.81
  Q 222.65 363.30 223.77 363.26
  A 0.85 0.84 73.4 0 0 224.46 361.98
  L 218.54 352.09
  C 217.43 349.50 216.29 347.23 215.59 344.45
  Q 214.53 340.17 212.46 335.05
  Q 204.60 315.66 194.01 298.93
  C 184.27 283.54 175.35 269.65 163.22 256.45
  Q 151.24 243.79 139.33 236.65
  C 125.72 228.49 111.71 221.13 98.93 212.06
  Q 87.29 203.80 79.27 193.76
  Q 78.44 192.71 77.16 192.95
  A 0.78 0.77 -4.7 0 0 76.53 193.68
  Q 75.40 228.39 76.29 261.33
  Q 76.57 271.93 77.59 281.75
  Q 80.40 308.61 96.09 330.71
  Q 98.38 333.93 100.74 336.66
  Z
  M 233.54 366.92
  L 226.86 366.90
  A 3.08 3.08 0.0 0 0 223.78 369.98
  L 223.67 431.15
  A 9.59 6.36 -89.9 0 0 230.02 440.75
  L 230.14 440.75
  A 9.59 6.36 -89.9 0 0 236.51 431.17
  L 236.62 370.00
  A 3.08 3.08 0.0 0 0 233.54 366.92
  Z"
/>
<path fill="#31c95c" d="
  M 293.20 157.87
  L 292.73 158.78
  Q 292.44 159.32 291.97 158.94
  Q 290.29 157.57 287.68 158.21
  Q 286.55 158.49 286.05 157.54
  A 1.56 1.56 0.0 0 0 285.44 156.90
  Q 283.76 155.97 282.03 154.98
  Q 280.65 154.18 278.86 153.68
  Q 274.11 152.36 269.54 150.29
  Q 266.96 149.12 263.48 148.78
  Q 256.27 148.08 250.00 147.14
  Q 249.83 147.11 249.60 147.23
  Q 249.23 147.41 248.84 147.27
  Q 246.72 146.53 244.65 146.65
  C 243.06 146.74 241.96 146.00 240.36 146.31
  Q 239.81 146.42 239.26 146.26
  L 236.49 145.42
  Q 235.89 145.23 235.58 145.78
  Q 235.42 146.06 235.11 146.07
  Q 234.52 146.08 234.05 145.81
  Q 233.20 145.32 232.52 146.04
  Q 232.34 146.22 232.17 146.04
  Q 232.07 145.93 231.93 145.95
  Q 231.44 145.99 231.43 146.48
  L 230.93 161.72
  Q 230.57 148.52 229.88 135.35
  C 229.79 133.64 230.00 132.06 229.52 130.34
  Q 229.23 129.31 229.18 130.38
  L 227.31 165.47
  Q 226.83 164.70 226.60 163.72
  Q 226.49 163.22 226.05 163.48
  Q 224.25 164.54 222.31 165.69
  A 20.56 20.25 6.4 0 0 218.18 168.94
  Q 210.70 176.58 203.22 184.32
  Q 201.82 185.76 200.51 187.37
  Q 199.24 188.95 197.82 190.31
  Q 196.16 191.91 194.90 193.74
  Q 193.31 196.05 191.23 197.69
  Q 190.28 198.44 189.62 199.48
  Q 189.28 200.02 188.65 200.12
  Q 187.98 200.24 187.80 200.90
  A 1.06 1.04 80.5 0 1 187.38 201.50
  Q 184.91 203.17 183.06 205.87
  Q 182.79 206.26 182.38 206.50
  Q 181.77 206.87 181.30 207.42
  Q 178.82 210.35 176.22 212.92
  Q 175.91 213.23 175.72 213.62
  Q 175.41 214.26 174.92 214.78
  Q 171.83 218.07 169.50 221.48
  C 168.28 223.26 166.84 224.68 165.41 226.30
  Q 165.04 226.71 164.91 227.24
  L 164.58 228.51
  Q 164.38 229.32 163.60 229.04
  Q 162.68 228.71 161.65 228.72
  C 155.88 214.64 154.37 198.08 155.95 183.14
  Q 157.64 167.14 164.82 150.32
  Q 171.32 135.08 178.19 122.82
  Q 197.84 87.72 221.16 53.60
  Q 224.35 48.93 228.17 44.13
  A 0.96 0.95 31.4 0 1 229.31 43.86
  Q 230.02 44.18 230.48 44.92
  C 233.90 50.43 237.70 55.73 241.20 61.38
  Q 261.63 94.37 270.96 110.62
  Q 280.46 127.14 288.32 144.92
  Q 291.17 151.38 293.20 157.87
  Z"
/>
<path fill="#b0dfc5" d="
  M 230.93 161.72
  L 231.14 163.29
  Q 231.36 199.64 231.60 236.00
  Q 231.73 254.65 231.56 270.63
  Q 231.51 275.59 231.01 285.85
  Q 230.64 293.51 230.67 301.06
  C 230.70 309.91 229.72 319.58 229.88 328.80
  Q 229.88 328.85 229.86 328.90
  Q 229.79 329.04 229.65 329.10
  Q 229.34 329.23 229.31 328.90
  Q 229.20 327.48 228.91 326.16
  Q 228.65 325.02 228.64 323.71
  Q 228.31 298.67 227.93 277.00
  Q 227.58 257.98 227.69 238.96
  L 227.31 165.47
  L 229.18 130.38
  Q 229.23 129.31 229.52 130.34
  C 230.00 132.06 229.79 133.64 229.88 135.35
  Q 230.57 148.52 230.93 161.72
  Z"
/>
<path fill="#24ae4a" d="
  M 293.20 157.87
  C 299.43 175.96 300.96 196.15 296.36 214.77
  L 294.92 212.58
  Q 294.66 212.19 294.23 212.04
  Q 293.67 211.84 293.14 212.06
  Q 292.52 212.33 292.16 211.75
  Q 291.26 210.27 290.25 208.77
  Q 289.60 207.81 288.70 207.29
  Q 287.71 206.72 287.08 205.81
  C 285.57 203.64 283.34 201.72 281.35 199.97
  A 0.40 0.40 0.0 0 0 280.84 199.95
  Q 280.51 200.20 280.62 200.46
  Q 280.90 201.15 280.40 200.61
  Q 277.61 197.57 275.01 196.03
  Q 271.96 194.21 266.57 192.28
  A 1.53 1.50 -46.8 0 0 265.40 192.33
  Q 263.20 193.38 261.22 191.90
  Q 260.28 191.19 259.09 191.01
  Q 256.51 190.61 253.69 190.23
  C 252.06 190.01 250.72 190.82 249.10 190.10
  Q 248.61 189.89 248.07 189.89
  L 245.54 189.88
  A 0.60 0.58 -64.7 0 0 245.15 190.03
  Q 243.83 191.18 242.28 190.76
  Q 242.15 190.73 242.11 190.86
  Q 242.07 191.01 241.95 191.06
  Q 241.34 191.28 240.85 190.80
  Q 240.53 190.49 240.16 190.71
  Q 239.84 190.89 239.47 190.85
  L 236.72 190.56
  Q 236.30 190.52 236.25 190.10
  Q 236.22 189.77 235.88 189.71
  Q 235.53 189.65 235.20 189.76
  Q 233.97 190.19 232.60 190.30
  A 0.10 0.10 0.0 0 1 232.54 190.11
  Q 232.77 189.97 232.53 189.73
  Q 232.13 189.32 232.13 189.89
  L 232.13 191.24
  Q 232.13 191.32 232.06 191.32
  L 231.79 191.33
  A 0.24 0.24 0.0 0 1 231.53 191.10
  L 231.14 163.29
  L 230.93 161.72
  L 231.43 146.48
  Q 231.44 145.99 231.93 145.95
  Q 232.07 145.93 232.17 146.04
  Q 232.34 146.22 232.52 146.04
  Q 233.20 145.32 234.05 145.81
  Q 234.52 146.08 235.11 146.07
  Q 235.42 146.06 235.58 145.78
  Q 235.89 145.23 236.49 145.42
  L 239.26 146.26
  Q 239.81 146.42 240.36 146.31
  C 241.96 146.00 243.06 146.74 244.65 146.65
  Q 246.72 146.53 248.84 147.27
  Q 249.23 147.41 249.60 147.23
  Q 249.83 147.11 250.00 147.14
  Q 256.27 148.08 263.48 148.78
  Q 266.96 149.12 269.54 150.29
  Q 274.11 152.36 278.86 153.68
  Q 280.65 154.18 282.03 154.98
  Q 283.76 155.97 285.44 156.90
  A 1.56 1.56 0.0 0 1 286.05 157.54
  Q 286.55 158.49 287.68 158.21
  Q 290.29 157.57 291.97 158.94
  Q 292.44 159.32 292.73 158.78
  L 293.20 157.87
  Z"
/>
<path fill="#24ae4a" d="
  M 227.31 165.47
  L 227.69 238.96
  L 227.18 193.88
  A 1.54 1.54 0.0 0 0 225.15 192.44
  Q 220.45 194.02 218.40 199.17
  Q 218.25 199.57 218.37 199.17
  Q 218.41 199.02 218.34 198.88
  Q 218.25 198.68 218.06 198.80
  Q 216.47 199.81 215.63 201.17
  C 214.84 202.47 213.53 202.98 212.62 204.12
  Q 209.64 207.87 206.61 211.75
  Q 204.96 213.85 202.44 216.56
  Q 200.38 218.77 198.14 221.35
  Q 196.91 222.77 196.52 223.88
  Q 196.49 223.98 196.41 223.92
  Q 196.28 223.82 196.16 223.88
  Q 195.80 224.08 195.70 224.46
  C 195.49 225.27 194.76 225.68 194.24 226.32
  Q 190.80 230.52 187.27 234.75
  Q 186.85 235.25 186.93 235.89
  Q 187.00 236.39 186.49 236.42
  Q 185.88 236.47 185.50 236.96
  Q 180.58 243.43 175.97 249.71
  A 1.23 1.22 20.1 0 1 174.89 250.21
  Q 173.21 250.08 172.83 250.77
  L 161.65 228.72
  Q 162.68 228.71 163.60 229.04
  Q 164.38 229.32 164.58 228.51
  L 164.91 227.24
  Q 165.04 226.71 165.41 226.30
  C 166.84 224.68 168.28 223.26 169.50 221.48
  Q 171.83 218.07 174.92 214.78
  Q 175.41 214.26 175.72 213.62
  Q 175.91 213.23 176.22 212.92
  Q 178.82 210.35 181.30 207.42
  Q 181.77 206.87 182.38 206.50
  Q 182.79 206.26 183.06 205.87
  Q 184.91 203.17 187.38 201.50
  A 1.06 1.04 80.5 0 0 187.80 200.90
  Q 187.98 200.24 188.65 200.12
  Q 189.28 200.02 189.62 199.48
  Q 190.28 198.44 191.23 197.69
  Q 193.31 196.05 194.90 193.74
  Q 196.16 191.91 197.82 190.31
  Q 199.24 188.95 200.51 187.37
  Q 201.82 185.76 203.22 184.32
  Q 210.70 176.58 218.18 168.94
  A 20.56 20.25 6.4 0 1 222.31 165.69
  Q 224.25 164.54 226.05 163.48
  Q 226.49 163.22 226.60 163.72
  Q 226.83 164.70 227.31 165.47
  Z"
/>
<path fill="#258d2a" d="
  M 231.14 163.29
  L 231.53 191.10
  A 0.24 0.24 0.0 0 0 231.79 191.33
  L 232.06 191.32
  Q 232.13 191.32 232.13 191.24
  L 232.13 189.89
  Q 232.13 189.32 232.53 189.73
  Q 232.77 189.97 232.54 190.11
  A 0.10 0.10 0.0 0 0 232.60 190.30
  Q 233.97 190.19 235.20 189.76
  Q 235.53 189.65 235.88 189.71
  Q 236.22 189.77 236.25 190.10
  Q 236.30 190.52 236.72 190.56
  L 239.47 190.85
  Q 239.84 190.89 240.16 190.71
  Q 240.53 190.49 240.85 190.80
  Q 241.34 191.28 241.95 191.06
  Q 242.07 191.01 242.11 190.86
  Q 242.15 190.73 242.28 190.76
  Q 243.83 191.18 245.15 190.03
  A 0.60 0.58 -64.7 0 1 245.54 189.88
  L 248.07 189.89
  Q 248.61 189.89 249.10 190.10
  C 250.72 190.82 252.06 190.01 253.69 190.23
  Q 256.51 190.61 259.09 191.01
  Q 260.28 191.19 261.22 191.90
  Q 263.20 193.38 265.40 192.33
  A 1.53 1.50 -46.8 0 1 266.57 192.28
  Q 271.96 194.21 275.01 196.03
  Q 277.61 197.57 280.40 200.61
  Q 280.90 201.15 280.62 200.46
  Q 280.51 200.20 280.84 199.95
  A 0.40 0.40 0.0 0 1 281.35 199.97
  C 283.34 201.72 285.57 203.64 287.08 205.81
  Q 287.71 206.72 288.70 207.29
  Q 289.60 207.81 290.25 208.77
  Q 291.26 210.27 292.16 211.75
  Q 292.52 212.33 293.14 212.06
  Q 293.67 211.84 294.23 212.04
  Q 294.66 212.19 294.92 212.58
  L 296.36 214.77
  C 293.55 226.58 288.20 237.24 281.80 247.17
  Q 269.99 265.51 258.95 283.42
  Q 243.56 308.40 233.85 334.50
  Q 231.52 340.78 230.56 346.83
  Q 230.36 348.07 229.92 346.90
  Q 228.44 343.03 226.73 339.62
  Q 213.65 313.55 206.70 302.16
  C 196.86 286.06 186.43 269.87 175.41 254.61
  Q 174.05 252.71 172.83 250.77
  Q 173.21 250.08 174.89 250.21
  A 1.23 1.22 20.1 0 0 175.97 249.71
  Q 180.58 243.43 185.50 236.96
  Q 185.88 236.47 186.49 236.42
  Q 187.00 236.39 186.93 235.89
  Q 186.85 235.25 187.27 234.75
  Q 190.80 230.52 194.24 226.32
  C 194.76 225.68 195.49 225.27 195.70 224.46
  Q 195.80 224.08 196.16 223.88
  Q 196.28 223.82 196.41 223.92
  Q 196.49 223.98 196.52 223.88
  Q 196.91 222.77 198.14 221.35
  Q 200.38 218.77 202.44 216.56
  Q 204.96 213.85 206.61 211.75
  Q 209.64 207.87 212.62 204.12
  C 213.53 202.98 214.84 202.47 215.63 201.17
  Q 216.47 199.81 218.06 198.80
  Q 218.25 198.68 218.34 198.88
  Q 218.41 199.02 218.37 199.17
  Q 218.25 199.57 218.40 199.17
  Q 220.45 194.02 225.15 192.44
  A 1.54 1.54 0.0 0 1 227.18 193.88
  L 227.69 238.96
  Q 227.58 257.98 227.93 277.00
  Q 228.31 298.67 228.64 323.71
  Q 228.65 325.02 228.91 326.16
  Q 229.20 327.48 229.31 328.90
  Q 229.34 329.23 229.65 329.10
  Q 229.79 329.04 229.86 328.90
  Q 229.88 328.85 229.88 328.80
  C 229.72 319.58 230.70 309.91 230.67 301.06
  Q 230.64 293.51 231.01 285.85
  Q 231.51 275.59 231.56 270.63
  Q 231.73 254.65 231.60 236.00
  Q 231.36 199.64 231.14 163.29
  Z"
/>
<path fill="#31c95c" d="
  M 387.48 290.05
  Q 386.72 289.05 385.68 289.03
  Q 385.13 289.02 385.13 288.47
  L 385.13 288.13
  Q 385.13 287.37 384.37 287.37
  L 382.21 287.37
  Q 381.70 287.37 381.54 286.89
  Q 380.70 284.51 380.12 282.15
  Q 379.99 281.63 379.63 281.23
  Q 378.76 280.26 378.88 279.03
  Q 378.93 278.39 378.42 278.00
  Q 377.57 277.35 377.99 276.38
  Q 378.20 275.89 377.78 275.57
  Q 376.95 274.93 376.79 273.96
  C 376.54 272.47 375.80 271.53 375.21 270.21
  Q 374.77 269.22 374.13 268.26
  Q 371.38 264.18 368.62 259.80
  Q 368.26 259.23 367.69 259.16
  Q 367.00 259.07 366.29 259.11
  Q 365.73 259.15 365.46 258.66
  Q 363.01 254.31 359.20 250.26
  Q 358.73 249.76 358.12 249.47
  Q 357.30 249.08 357.84 249.81
  Q 359.44 252.00 360.64 254.03
  Q 361.19 254.97 360.25 254.42
  C 359.40 253.92 358.97 252.69 358.27 251.95
  Q 352.27 245.63 345.97 239.01
  Q 345.60 238.62 345.06 238.62
  L 344.57 238.62
  Q 344.01 238.62 343.67 238.18
  Q 342.61 236.80 341.74 235.33
  Q 341.10 234.25 340.24 233.26
  Q 338.28 231.03 338.79 227.68
  A 0.24 0.24 0.0 0 0 338.52 227.40
  Q 338.19 227.43 337.76 227.20
  Q 353.33 219.29 358.80 216.09
  Q 374.50 206.87 386.63 193.07
  A 0.99 0.99 0.0 0 1 388.26 193.29
  Q 388.85 194.49 388.92 195.79
  Q 390.32 220.34 390.95 247.61
  C 391.28 262.07 390.87 276.25 387.48 290.05
  Z"
/>
<path fill="#31c95c" d="
  M 163.22 256.45
  Q 162.25 256.09 161.77 256.38
  Q 161.39 256.61 161.83 256.63
  Q 161.97 256.64 162.11 256.66
  A 0.50 0.49 -69.4 0 1 162.45 257.41
  Q 160.73 260.18 157.39 261.50
  Q 154.34 262.71 151.21 265.33
  Q 150.00 266.35 148.47 267.01
  Q 147.01 267.64 145.64 268.58
  Q 143.67 269.93 141.71 271.20
  Q 139.08 272.90 136.97 275.20
  A 0.62 0.60 19.2 0 1 136.54 275.40
  Q 136.07 275.40 136.10 275.90
  A 0.79 0.78 67.2 0 1 135.85 276.52
  L 128.29 283.37
  Q 127.30 284.27 128.39 285.05
  L 133.55 288.74
  Q 133.19 288.79 134.11 289.73
  L 133.19 289.63
  Q 132.69 289.58 132.25 289.84
  Q 131.04 290.54 130.25 291.62
  Q 129.39 292.81 128.34 293.74
  Q 122.84 298.58 116.97 303.36
  Q 116.51 303.74 115.93 303.63
  L 114.56 303.39
  Q 113.40 303.19 114.05 304.17
  L 118.50 310.91
  Q 116.76 312.06 115.33 314.73
  Q 114.31 316.64 113.50 318.66
  Q 113.42 318.84 113.43 319.04
  Q 113.43 319.34 113.62 319.30
  Q 114.24 319.17 113.98 319.75
  Q 113.23 321.46 112.98 323.30
  Q 112.91 323.79 112.58 324.16
  Q 108.94 328.23 107.35 333.46
  Q 107.20 333.98 106.78 334.32
  L 104.60 336.05
  Q 104.27 336.32 103.84 336.25
  Q 101.80 335.92 100.74 336.66
  Q 98.38 333.93 96.09 330.71
  Q 80.40 308.61 77.59 281.75
  Q 76.57 271.93 76.29 261.33
  Q 75.40 228.39 76.53 193.68
  A 0.78 0.77 -4.7 0 1 77.16 192.95
  Q 78.44 192.71 79.27 193.76
  Q 87.29 203.80 98.93 212.06
  C 111.71 221.13 125.72 228.49 139.33 236.65
  Q 151.24 243.79 163.22 256.45
  Z"
/>
<path fill="#24ae4a" d="
  M 337.76 227.20
  Q 338.19 227.43 338.52 227.40
  A 0.24 0.24 0.0 0 1 338.79 227.68
  Q 338.28 231.03 340.24 233.26
  Q 341.10 234.25 341.74 235.33
  Q 342.61 236.80 343.67 238.18
  Q 344.01 238.62 344.57 238.62
  L 345.06 238.62
  Q 345.60 238.62 345.97 239.01
  Q 352.27 245.63 358.27 251.95
  C 358.97 252.69 359.40 253.92 360.25 254.42
  Q 361.19 254.97 360.64 254.03
  Q 359.44 252.00 357.84 249.81
  Q 357.30 249.08 358.12 249.47
  Q 358.73 249.76 359.20 250.26
  Q 363.01 254.31 365.46 258.66
  Q 365.73 259.15 366.29 259.11
  Q 367.00 259.07 367.69 259.16
  Q 368.26 259.23 368.62 259.80
  Q 371.38 264.18 374.13 268.26
  Q 374.77 269.22 375.21 270.21
  C 375.80 271.53 376.54 272.47 376.79 273.96
  Q 376.95 274.93 377.78 275.57
  Q 378.20 275.89 377.99 276.38
  Q 377.57 277.35 378.42 278.00
  Q 378.93 278.39 378.88 279.03
  Q 378.76 280.26 379.63 281.23
  Q 379.99 281.63 380.12 282.15
  Q 380.70 284.51 381.54 286.89
  Q 381.70 287.37 382.21 287.37
  L 384.37 287.37
  Q 385.13 287.37 385.13 288.13
  L 385.13 288.47
  Q 385.13 289.02 385.68 289.03
  Q 386.72 289.05 387.48 290.05
  Q 380.27 322.24 356.33 344.08
  Q 331.53 366.70 296.95 369.35
  Q 298.27 366.49 299.17 364.13
  Q 299.45 363.39 300.12 363.23
  Q 300.64 363.10 300.74 362.57
  Q 300.77 362.42 300.77 362.26
  Q 300.76 361.68 301.21 361.32
  Q 301.91 360.76 301.95 360.02
  Q 301.97 359.49 302.34 359.10
  Q 303.56 357.77 304.11 355.88
  C 304.55 354.37 305.66 352.98 306.39 351.50
  Q 306.58 351.12 306.99 351.12
  L 307.40 351.12
  Q 307.92 351.12 308.01 350.61
  Q 308.22 349.44 308.87 348.26
  Q 309.32 347.44 310.17 347.10
  Q 317.59 344.04 323.48 340.92
  Q 326.34 339.40 328.95 337.39
  A 1.60 1.59 59.3 0 0 329.43 335.49
  Q 328.00 332.24 326.63 329.17
  Q 324.45 324.30 320.82 319.21
  Q 319.81 317.78 319.13 316.39
  Q 318.39 314.90 317.72 313.43
  Q 317.50 312.94 317.03 312.68
  Q 316.43 312.34 316.59 311.65
  Q 316.62 311.54 316.52 311.50
  Q 316.35 311.42 316.28 311.50
  Q 316.11 311.73 316.06 311.44
  Q 315.92 310.49 315.14 309.88
  Q 314.72 309.56 314.63 309.03
  Q 314.23 306.75 312.35 305.39
  Q 311.93 305.09 311.86 305.60
  Q 311.84 305.73 311.87 305.87
  Q 312.10 306.86 311.61 305.96
  Q 310.63 304.16 308.83 303.66
  Q 311.38 300.71 314.35 298.10
  Q 324.04 289.60 334.03 281.45
  Q 334.20 281.31 333.98 281.36
  Q 333.94 281.37 333.89 281.37
  Q 333.84 281.36 333.80 281.39
  Q 331.51 283.05 329.31 284.57
  Q 328.45 283.15 327.16 282.26
  Q 326.76 281.98 326.60 281.53
  Q 325.88 279.49 324.28 278.25
  C 322.47 276.84 321.22 274.95 319.82 273.21
  Q 319.49 272.81 318.99 272.72
  C 317.63 272.46 317.16 271.31 316.17 270.53
  Q 310.24 265.89 304.19 261.43
  Q 303.83 261.16 303.54 260.19
  Q 303.31 259.44 302.68 258.97
  Q 301.53 258.13 300.65 257.02
  Q 299.60 255.70 299.06 253.62
  Q 298.93 253.16 299.41 253.11
  Q 299.79 253.08 300.04 252.77
  Q 300.23 252.53 299.94 252.62
  Q 299.75 252.67 299.58 252.57
  Q 299.48 252.50 299.45 252.38
  Q 299.44 252.33 299.48 252.29
  Q 299.65 252.15 299.42 252.14
  Q 299.17 252.13 298.99 251.97
  C 310.87 241.39 323.24 234.34 337.76 227.20
  Z"
/>
<path fill="#258d2a" d="
  M 298.99 251.97
  Q 299.17 252.13 299.42 252.14
  Q 299.65 252.15 299.48 252.29
  Q 299.44 252.33 299.45 252.38
  Q 299.48 252.50 299.58 252.57
  Q 299.75 252.67 299.94 252.62
  Q 300.23 252.53 300.04 252.77
  Q 299.79 253.08 299.41 253.11
  Q 298.93 253.16 299.06 253.62
  Q 299.60 255.70 300.65 257.02
  Q 301.53 258.13 302.68 258.97
  Q 303.31 259.44 303.54 260.19
  Q 303.83 261.16 304.19 261.43
  Q 310.24 265.89 316.17 270.53
  C 317.16 271.31 317.63 272.46 318.99 272.72
  Q 319.49 272.81 319.82 273.21
  C 321.22 274.95 322.47 276.84 324.28 278.25
  Q 325.88 279.49 326.60 281.53
  Q 326.76 281.98 327.16 282.26
  Q 328.45 283.15 329.31 284.57
  C 317.07 293.31 304.66 301.93 293.00 311.29
  C 285.80 317.08 278.12 322.44 271.20 328.31
  Q 258.72 338.91 247.31 349.55
  C 245.89 350.88 244.52 352.42 243.65 354.19
  C 242.66 356.24 240.03 360.89 237.90 362.07
  A 0.69 0.69 0.0 0 1 236.94 361.18
  L 241.78 350.82
  Q 242.04 350.27 242.65 350.27
  Q 245.26 350.27 245.34 347.16
  A 0.65 0.65 0.0 0 0 244.64 346.49
  Q 243.65 346.57 242.96 345.92
  Q 242.41 345.39 242.56 344.61
  Q 243.07 341.93 243.89 339.23
  C 252.03 312.51 266.50 288.01 285.13 265.86
  Q 292.25 257.41 298.99 251.97
  Z"
/>
<path fill="#258d2a" d="
  M 163.22 256.45
  C 175.35 269.65 184.27 283.54 194.01 298.93
  Q 204.60 315.66 212.46 335.05
  Q 214.53 340.17 215.59 344.45
  C 216.29 347.23 217.43 349.50 218.54 352.09
  Q 218.80 352.48 218.35 352.53
  C 217.33 351.48 216.46 350.32 215.32 349.40
  C 207.25 342.92 197.37 337.75 190.05 331.89
  Q 178.73 322.82 168.37 314.56
  C 157.39 305.81 145.18 297.35 133.55 288.74
  L 128.39 285.05
  Q 127.30 284.27 128.29 283.37
  L 135.85 276.52
  A 0.79 0.78 67.2 0 0 136.10 275.90
  Q 136.07 275.40 136.54 275.40
  A 0.62 0.60 19.2 0 0 136.97 275.20
  Q 139.08 272.90 141.71 271.20
  Q 143.67 269.93 145.64 268.58
  Q 147.01 267.64 148.47 267.01
  Q 150.00 266.35 151.21 265.33
  Q 154.34 262.71 157.39 261.50
  Q 160.73 260.18 162.45 257.41
  A 0.50 0.49 -69.4 0 0 162.11 256.66
  Q 161.97 256.64 161.83 256.63
  Q 161.39 256.61 161.77 256.38
  Q 162.25 256.09 163.22 256.45
  Z"
/>
<path fill="#1c8532" d="
  M 134.11 289.73
  Q 134.20 289.69 134.37 289.73
  Q 134.50 289.76 134.60 289.84
  Q 139.63 293.97 141.48 295.69
  C 158.09 311.13 173.32 325.28 191.26 339.04
  Q 201.62 346.99 211.13 356.55
  C 214.13 359.56 217.49 362.12 220.45 365.16
  Q 221.04 365.77 220.24 366.06
  C 215.42 367.84 211.27 368.97 205.94 369.40
  C 190.91 370.60 176.21 371.18 161.97 368.98
  L 160.74 368.59
  Q 160.05 368.38 160.09 367.65
  Q 160.10 367.39 159.80 367.36
  Q 159.00 367.30 159.11 366.50
  Q 159.65 362.62 158.62 358.75
  Q 158.31 357.57 158.86 356.03
  Q 159.06 355.48 158.62 355.11
  Q 157.72 354.34 158.57 353.43
  A 1.19 1.19 0.0 0 0 158.84 352.27
  Q 158.34 350.70 159.40 349.44
  Q 159.80 348.97 159.26 348.67
  Q 154.31 345.97 150.27 342.84
  Q 145.00 338.77 136.15 331.34
  Q 128.31 324.75 118.50 310.91
  L 114.05 304.17
  Q 113.40 303.19 114.56 303.39
  L 115.93 303.63
  Q 116.51 303.74 116.97 303.36
  Q 122.84 298.58 128.34 293.74
  Q 129.39 292.81 130.25 291.62
  Q 131.04 290.54 132.25 289.84
  Q 132.69 289.58 133.19 289.63
  L 134.11 289.73
  Z"
/>
<path fill="#16772d" d="
  M 308.83 303.66
  Q 310.63 304.16 311.61 305.96
  Q 312.10 306.86 311.87 305.87
  Q 311.84 305.73 311.86 305.60
  Q 311.93 305.09 312.35 305.39
  Q 314.23 306.75 314.63 309.03
  Q 314.72 309.56 315.14 309.88
  Q 315.92 310.49 316.06 311.44
  Q 316.11 311.73 316.28 311.50
  Q 316.35 311.42 316.52 311.50
  Q 316.62 311.54 316.59 311.65
  Q 316.43 312.34 317.03 312.68
  Q 317.50 312.94 317.72 313.43
  Q 318.39 314.90 319.13 316.39
  Q 319.81 317.78 320.82 319.21
  Q 324.45 324.30 326.63 329.17
  Q 328.00 332.24 329.43 335.49
  A 1.60 1.59 59.3 0 1 328.95 337.39
  Q 326.34 339.40 323.48 340.92
  Q 317.59 344.04 310.17 347.10
  Q 309.32 347.44 308.87 348.26
  Q 308.22 349.44 308.01 350.61
  Q 307.92 351.12 307.40 351.12
  L 306.99 351.12
  Q 306.58 351.12 306.39 351.50
  C 305.66 352.98 304.55 354.37 304.11 355.88
  Q 303.56 357.77 302.34 359.10
  Q 301.97 359.49 301.95 360.02
  Q 301.91 360.76 301.21 361.32
  Q 300.76 361.68 300.77 362.26
  Q 300.77 362.42 300.74 362.57
  Q 300.64 363.10 300.12 363.23
  Q 299.45 363.39 299.17 364.13
  Q 298.27 366.49 296.95 369.35
  Q 294.19 369.58 290.99 369.77
  Q 288.08 369.95 285.09 369.90
  Q 256.26 369.44 241.28 368.80
  C 239.14 368.71 239.04 366.27 240.28 365.05
  C 241.65 363.70 242.82 362.07 244.21 360.77
  C 249.63 355.70 254.93 350.51 260.55 345.64
  Q 284.72 324.71 308.83 303.66
  Z"
/>
<path fill="#24ae4a" d="
  M 118.50 310.91
  Q 128.31 324.75 136.15 331.34
  Q 145.00 338.77 150.27 342.84
  Q 154.31 345.97 159.26 348.67
  Q 159.80 348.97 159.40 349.44
  Q 158.34 350.70 158.84 352.27
  A 1.19 1.19 0.0 0 1 158.57 353.43
  Q 157.72 354.34 158.62 355.11
  Q 159.06 355.48 158.86 356.03
  Q 158.31 357.57 158.62 358.75
  Q 159.65 362.62 159.11 366.50
  Q 159.00 367.30 159.80 367.36
  Q 160.10 367.39 160.09 367.65
  Q 160.05 368.38 160.74 368.59
  L 161.97 368.98
  Q 152.69 367.94 143.93 364.90
  C 127.40 359.16 112.24 350.13 100.74 336.66
  Q 101.80 335.92 103.84 336.25
  Q 104.27 336.32 104.60 336.05
  L 106.78 334.32
  Q 107.20 333.98 107.35 333.46
  Q 108.94 328.23 112.58 324.16
  Q 112.91 323.79 112.98 323.30
  Q 113.23 321.46 113.98 319.75
  Q 114.24 319.17 113.62 319.30
  Q 113.43 319.34 113.43 319.04
  Q 113.42 318.84 113.50 318.66
  Q 114.31 316.64 115.33 314.73
  Q 116.76 312.06 118.50 310.91
  Z"
/>
<path fill="#24ae4a" d="
  M 218.54 352.09
  L 224.46 361.98
  A 0.85 0.84 73.4 0 1 223.77 363.26
  Q 222.65 363.30 222.26 361.81
  Q 220.96 356.84 218.35 352.53
  Q 218.80 352.48 218.54 352.09
  Z"
/>
<path fill="#24ae4a" d="
  M 233.54 366.92
  A 3.08 3.08 0.0 0 1 236.62 370.00
  L 236.51 431.17
  A 9.59 6.36 -89.9 0 1 230.14 440.75
  L 230.02 440.75
  A 9.59 6.36 -89.9 0 1 223.67 431.15
  L 223.78 369.98
  A 3.08 3.08 0.0 0 1 226.86 366.90
  L 233.54 366.92
  Z"
/>
</svg>
